<svg width="23" height="32" fill="none" xmlns="http://www.w3.org/2000/svg"><path d="M21.591 29.944h-.563c0-.006-.002-.012-.004-.018l-.015-.069a5.09 5.09 0 00-.032-.134l-.015-.063a9.523 9.523 0 00-.045-.177l-.005-.016a8.111 8.111 0 00-.055-.19l-.019-.062-.039-.129-.023-.07a6.495 6.495 0 00-.043-.124l-.023-.065a7.031 7.031 0 00-.056-.154l-.012-.032a7.571 7.571 0 00-.072-.18l-.027-.064-.05-.117-.032-.072a7.38 7.38 0 00-.084-.183 3.746 3.746 0 00-.062-.128l-.024-.049a6.16 6.16 0 00-.086-.166l-.04-.07-.055-.101-.043-.075-.055-.094a2.274 2.274 0 00-.045-.075c-.02-.034-.04-.068-.062-.101l-.057-.092-.08-.125a5.298 5.298 0 00-.053-.078l-.056-.083a1.35 1.35 0 01-.057-.082.983.983 0 00-.055-.074c-.019-.024-.04-.055-.06-.083l-.055-.075c-.04-.05-.076-.1-.115-.15l-.054-.068-.07-.085-.052-.063a2.063 2.063 0 00-.073-.086l-.051-.06-.077-.086-.045-.05a9.498 9.498 0 00-.29-.306l-.044-.044-.09-.088-.045-.043a6.692 6.692 0 00-.095-.09l-.033-.03a8.237 8.237 0 00-.344-.3l-.032-.026a7.135 7.135 0 00-.108-.088l-.037-.03c-.04-.03-.075-.06-.114-.089l-.019-.014a9.262 9.262 0 00-.395-.288l-.018-.013a9.713 9.713 0 00-.127-.085l-.028-.018c-.044-.03-.088-.057-.131-.085l-.008-.005a9.483 9.483 0 00-.444-.265l-.006-.003a5.037 5.037 0 00-.143-.078l-.021-.012a9.62 9.62 0 00-.783-.374l-.017-.007a9.163 9.163 0 00-.213-.087h1.412c.23 0 .417-.251.417-.562 0-.31-.186-.56-.417-.56h-.42l.086-.215c.397-.235 1.098-.736 1.793-1.656l.005-.007a4.84 4.84 0 00.155-.213l.01-.015c.051-.072.102-.147.151-.225l.014-.02.07-.113s0-.002.004-.004l.072-.119.016-.026.061-.105.012-.02.07-.123.015-.028a6.403 6.403 0 00.138-.263l.016-.03.052-.107.02-.038.062-.134.014-.029.05-.112.02-.045a6.476 6.476 0 00.122-.291l.02-.05.048-.124.012-.031.055-.15.019-.053.041-.12.016-.045a12.614 12.614 0 00.068-.212l.04-.123.015-.054c.017-.054.033-.11.048-.165l.015-.054.035-.13.016-.06.043-.174.012-.049.033-.141.014-.064a12.913 12.913 0 00.079-.383l.013-.066.03-.168.006-.036.032-.199.01-.068.025-.164.007-.05.027-.21.008-.066a8.25 8.25 0 00.025-.228l.022-.22c0-.02.003-.04.005-.062l.015-.178c0-.022.003-.044.005-.066l.015-.23c0-.018 0-.038.003-.054l.01-.194c0-.024 0-.047.003-.07l.009-.244v-.035l.004-.22v-.67c0-.075-.003-.153-.005-.231v-.043l-.01-.271-.003-.072a17.182 17.182 0 00-.012-.232c0-.019 0-.037-.003-.058a26.905 26.905 0 00-.018-.283l-.005-.066-.018-.24c0-.023-.004-.046-.006-.069a27.538 27.538 0 00-.027-.295c0-.018-.004-.037-.005-.056l-.027-.255a23.313 23.313 0 00-.044-.385c0-.012-.003-.025-.005-.037a22.797 22.797 0 00-.036-.28l-.011-.083-.046-.322C18.373-1.316 7.184.414 7.184.414l.358 2.29L.775 9.48l.296 2.617 2.563 1.497a3.85 3.85 0 01.437-.782c1.654-1.809 4.863-3.229 5.782-3.523.184-.059.289-.088.289-.088-4.394 5.391-3.895 11.568-3.699 13.04-.204.037-.361.27-.361.555 0 .31.187.561.417.561h1.413c-2.35.933-4.215 2.709-5.189 4.94a2.614 2.614 0 00-.31.836l-.02.065-.037.121-.021.075a4.184 4.184 0 00-.054.2l-.029.111-.026.115-.03.13h-.563a.853.853 0 00-.586.22.77.77 0 00-.181.252.737.737 0 00.18.85.821.821 0 00.587.22h19.965a.853.853 0 00.587-.22.772.772 0 00.181-.252.737.737 0 00-.18-.85.853.853 0 00-.587-.22l-.008-.007z" fill="#595653"/></svg>